<svg xmlns="http://www.w3.org/2000/svg" width="900" height="160" viewBox="0 0 900 160" fill="none">
  
  <defs>
    <linearGradient id="acb"><stop offset="0" stop-color="#24124f"/></linearGradient>
    <radialGradient id="acn" cx=".9" cy="0" r="1"><stop offset="0" stop-color="#7c3aed" stop-opacity=".2"/><stop offset="1" stop-color="#7c3aed" stop-opacity="0"/></radialGradient>
    <clipPath id="acc"><rect x="1" y="1" width="898" height="158" rx="16"/></clipPath>
  </defs>
  <rect x="1" y="1" width="898" height="158" rx="16" fill="#0b0424"/>
  <rect x="1" y="1" width="898" height="158" rx="16" fill="url(#acn)"/>
  <rect x="1" y="1" width="898" height="158" rx="16" stroke="url(#acb)" stroke-width="1"/>
  <defs>
    <linearGradient id="sweep" x1="0" x2="1"><stop offset="0" stop-color="#c084fc" stop-opacity="0"/><stop offset=".5" stop-color="#c084fc" stop-opacity=".18"/><stop offset="1" stop-color="#c084fc" stop-opacity="0"/></linearGradient>
    <clipPath id="grid"><rect x="107" y="52" width="686" height="91"/></clipPath>
  </defs>
  <text x="107" y="34" font-family="'JetBrains Mono', Consolas, 'DejaVu Sans Mono', Menlo, monospace" font-size="11" fill="#8b7bb8" letter-spacing="1">36 contributions this year</text>
  <text x="793" y="34" text-anchor="end" font-family="'JetBrains Mono', Consolas, 'DejaVu Sans Mono', Menlo, monospace" font-size="11" fill="#c084fc" letter-spacing="1">0-day streak</text>
  <rect x="107" y="52" width="10" height="10" rx="2.5" fill="#140a33"><title>2025-10-05: 0</title></rect><rect x="107" y="65" width="10" height="10" rx="2.5" fill="#140a33"><title>2025-10-06: 0</title></rect><rect x="107" y="78" width="10" height="10" rx="2.5" fill="#140a33"><title>2025-10-07: 0</title></rect><rect x="107" y="91" width="10" height="10" rx="2.5" fill="#140a33"><title>2025-10-08: 0</title></rect><rect x="107" y="104" width="10" height="10" rx="2.5" fill="#140a33"><title>2025-10-09: 0</title></rect><rect x="107" y="117" width="10" height="10" rx="2.5" fill="#140a33"><title>2025-10-10: 0</title></rect><rect x="107" y="130" width="10" height="10" rx="2.5" fill="#140a33"><title>2025-10-11: 0</title></rect><rect x="120" y="52" width="10" height="10" rx="2.5" fill="#140a33"><title>2025-10-12: 0</title></rect><rect x="120" y="65" width="10" height="10" rx="2.5" fill="#140a33"><title>2025-10-13: 0</title></rect><rect x="120" y="78" width="10" height="10" rx="2.5" fill="#140a33"><title>2025-10-14: 0</title></rect><rect x="120" y="91" width="10" height="10" rx="2.5" fill="#140a33"><title>2025-10-15: 0</title></rect><rect x="120" y="104" width="10" height="10" rx="2.5" fill="#140a33"><title>2025-10-16: 0</title></rect><rect x="120" y="117" width="10" height="10" rx="2.5" fill="#140a33"><title>2025-10-17: 0</title></rect><rect x="120" y="130" width="10" height="10" rx="2.5" fill="#140a33"><title>2025-10-18: 0</title></rect><rect x="133" y="52" width="10" height="10" rx="2.5" fill="#140a33"><title>2025-10-19: 0</title></rect><rect x="133" y="65" width="10" height="10" rx="2.5" fill="#140a33"><title>2025-10-20: 0</title></rect><rect x="133" y="78" width="10" height="10" rx="2.5" fill="#140a33"><title>2025-10-21: 0</title></rect><rect x="133" y="91" width="10" height="10" rx="2.5" fill="#140a33"><title>2025-10-22: 0</title></rect><rect x="133" y="104" width="10" height="10" rx="2.5" fill="#140a33"><title>2025-10-23: 0</title></rect><rect x="133" y="117" width="10" height="10" rx="2.5" fill="#140a33"><title>2025-10-24: 0</title></rect><rect x="133" y="130" width="10" height="10" rx="2.5" fill="#140a33"><title>2025-10-25: 0</title></rect><rect x="146" y="52" width="10" height="10" rx="2.5" fill="#140a33"><title>2025-10-26: 0</title></rect><rect x="146" y="65" width="10" height="10" rx="2.5" fill="#140a33"><title>2025-10-27: 0</title></rect><rect x="146" y="78" width="10" height="10" rx="2.5" fill="#140a33"><title>2025-10-28: 0</title></rect><rect x="146" y="91" width="10" height="10" rx="2.5" fill="#140a33"><title>2025-10-29: 0</title></rect><rect x="146" y="104" width="10" height="10" rx="2.5" fill="#140a33"><title>2025-10-30: 0</title></rect><rect x="146" y="117" width="10" height="10" rx="2.5" fill="#140a33"><title>2025-10-31: 0</title></rect><rect x="146" y="130" width="10" height="10" rx="2.5" fill="#140a33"><title>2025-11-01: 0</title></rect><rect x="159" y="52" width="10" height="10" rx="2.5" fill="#140a33"><title>2025-11-02: 0</title></rect><rect x="159" y="65" width="10" height="10" rx="2.5" fill="#140a33"><title>2025-11-03: 0</title></rect><rect x="159" y="78" width="10" height="10" rx="2.5" fill="#140a33"><title>2025-11-04: 0</title></rect><rect x="159" y="91" width="10" height="10" rx="2.5" fill="#140a33"><title>2025-11-05: 0</title></rect><rect x="159" y="104" width="10" height="10" rx="2.5" fill="#140a33"><title>2025-11-06: 0</title></rect><rect x="159" y="117" width="10" height="10" rx="2.5" fill="#140a33"><title>2025-11-07: 0</title></rect><rect x="159" y="130" width="10" height="10" rx="2.5" fill="#140a33"><title>2025-11-08: 0</title></rect><rect x="172" y="52" width="10" height="10" rx="2.5" fill="#140a33"><title>2025-11-09: 0</title></rect><rect x="172" y="65" width="10" height="10" rx="2.5" fill="#140a33"><title>2025-11-10: 0</title></rect><rect x="172" y="78" width="10" height="10" rx="2.5" fill="#140a33"><title>2025-11-11: 0</title></rect><rect x="172" y="91" width="10" height="10" rx="2.5" fill="#140a33"><title>2025-11-12: 0</title></rect><rect x="172" y="104" width="10" height="10" rx="2.5" fill="#140a33"><title>2025-11-13: 0</title></rect><rect x="172" y="117" width="10" height="10" rx="2.5" fill="#140a33"><title>2025-11-14: 0</title></rect><rect x="172" y="130" width="10" height="10" rx="2.5" fill="#140a33"><title>2025-11-15: 0</title></rect><rect x="185" y="52" width="10" height="10" rx="2.5" fill="#140a33"><title>2025-11-16: 0</title></rect><rect x="185" y="65" width="10" height="10" rx="2.5" fill="#140a33"><title>2025-11-17: 0</title></rect><rect x="185" y="78" width="10" height="10" rx="2.5" fill="#140a33"><title>2025-11-18: 0</title></rect><rect x="185" y="91" width="10" height="10" rx="2.5" fill="#140a33"><title>2025-11-19: 0</title></rect><rect x="185" y="104" width="10" height="10" rx="2.5" fill="#140a33"><title>2025-11-20: 0</title></rect><rect x="185" y="117" width="10" height="10" rx="2.5" fill="#140a33"><title>2025-11-21: 0</title></rect><rect x="185" y="130" width="10" height="10" rx="2.5" fill="#140a33"><title>2025-11-22: 0</title></rect><rect x="198" y="52" width="10" height="10" rx="2.5" fill="#140a33"><title>2025-11-23: 0</title></rect><rect x="198" y="65" width="10" height="10" rx="2.5" fill="#140a33"><title>2025-11-24: 0</title></rect><rect x="198" y="78" width="10" height="10" rx="2.5" fill="#140a33"><title>2025-11-25: 0</title></rect><rect x="198" y="91" width="10" height="10" rx="2.5" fill="#140a33"><title>2025-11-26: 0</title></rect><rect x="198" y="104" width="10" height="10" rx="2.5" fill="#140a33"><title>2025-11-27: 0</title></rect><rect x="198" y="117" width="10" height="10" rx="2.5" fill="#140a33"><title>2025-11-28: 0</title></rect><rect x="198" y="130" width="10" height="10" rx="2.5" fill="#140a33"><title>2025-11-29: 0</title></rect><rect x="211" y="52" width="10" height="10" rx="2.5" fill="#140a33"><title>2025-11-30: 0</title></rect><rect x="211" y="65" width="10" height="10" rx="2.5" fill="#140a33"><title>2025-12-01: 0</title></rect><rect x="211" y="78" width="10" height="10" rx="2.5" fill="#140a33"><title>2025-12-02: 0</title></rect><rect x="211" y="91" width="10" height="10" rx="2.5" fill="#140a33"><title>2025-12-03: 0</title></rect><rect x="211" y="104" width="10" height="10" rx="2.5" fill="#140a33"><title>2025-12-04: 0</title></rect><rect x="211" y="117" width="10" height="10" rx="2.5" fill="#140a33"><title>2025-12-05: 0</title></rect><rect x="211" y="130" width="10" height="10" rx="2.5" fill="#140a33"><title>2025-12-06: 0</title></rect><rect x="224" y="52" width="10" height="10" rx="2.5" fill="#140a33"><title>2025-12-07: 0</title></rect><rect x="224" y="65" width="10" height="10" rx="2.5" fill="#140a33"><title>2025-12-08: 0</title></rect><rect x="224" y="78" width="10" height="10" rx="2.5" fill="#140a33"><title>2025-12-09: 0</title></rect><rect x="224" y="91" width="10" height="10" rx="2.5" fill="#140a33"><title>2025-12-10: 0</title></rect><rect x="224" y="104" width="10" height="10" rx="2.5" fill="#140a33"><title>2025-12-11: 0</title></rect><rect x="224" y="117" width="10" height="10" rx="2.5" fill="#140a33"><title>2025-12-12: 0</title></rect><rect x="224" y="130" width="10" height="10" rx="2.5" fill="#140a33"><title>2025-12-13: 0</title></rect><rect x="237" y="52" width="10" height="10" rx="2.5" fill="#140a33"><title>2025-12-14: 0</title></rect><rect x="237" y="65" width="10" height="10" rx="2.5" fill="#140a33"><title>2025-12-15: 0</title></rect><rect x="237" y="78" width="10" height="10" rx="2.5" fill="#140a33"><title>2025-12-16: 0</title></rect><rect x="237" y="91" width="10" height="10" rx="2.5" fill="#140a33"><title>2025-12-17: 0</title></rect><rect x="237" y="104" width="10" height="10" rx="2.5" fill="#140a33"><title>2025-12-18: 0</title></rect><rect x="237" y="117" width="10" height="10" rx="2.5" fill="#140a33"><title>2025-12-19: 0</title></rect><rect x="237" y="130" width="10" height="10" rx="2.5" fill="#140a33"><title>2025-12-20: 0</title></rect><rect x="250" y="52" width="10" height="10" rx="2.5" fill="#140a33"><title>2025-12-21: 0</title></rect><rect x="250" y="65" width="10" height="10" rx="2.5" fill="#140a33"><title>2025-12-22: 0</title></rect><rect x="250" y="78" width="10" height="10" rx="2.5" fill="#140a33"><title>2025-12-23: 0</title></rect><rect x="250" y="91" width="10" height="10" rx="2.5" fill="#140a33"><title>2025-12-24: 0</title></rect><rect x="250" y="104" width="10" height="10" rx="2.5" fill="#140a33"><title>2025-12-25: 0</title></rect><rect x="250" y="117" width="10" height="10" rx="2.5" fill="#140a33"><title>2025-12-26: 0</title></rect><rect x="250" y="130" width="10" height="10" rx="2.5" fill="#140a33"><title>2025-12-27: 0</title></rect><rect x="263" y="52" width="10" height="10" rx="2.5" fill="#140a33"><title>2025-12-28: 0</title></rect><rect x="263" y="65" width="10" height="10" rx="2.5" fill="#140a33"><title>2025-12-29: 0</title></rect><rect x="263" y="78" width="10" height="10" rx="2.5" fill="#140a33"><title>2025-12-30: 0</title></rect><rect x="263" y="91" width="10" height="10" rx="2.5" fill="#140a33"><title>2025-12-31: 0</title></rect><rect x="263" y="104" width="10" height="10" rx="2.5" fill="#140a33"><title>2026-01-01: 0</title></rect><rect x="263" y="117" width="10" height="10" rx="2.5" fill="#140a33"><title>2026-01-02: 0</title></rect><rect x="263" y="130" width="10" height="10" rx="2.5" fill="#140a33"><title>2026-01-03: 0</title></rect><rect x="276" y="52" width="10" height="10" rx="2.5" fill="#140a33"><title>2026-01-04: 0</title></rect><rect x="276" y="65" width="10" height="10" rx="2.5" fill="#140a33"><title>2026-01-05: 0</title></rect><rect x="276" y="78" width="10" height="10" rx="2.5" fill="#140a33"><title>2026-01-06: 0</title></rect><rect x="276" y="91" width="10" height="10" rx="2.5" fill="#140a33"><title>2026-01-07: 0</title></rect><rect x="276" y="104" width="10" height="10" rx="2.5" fill="#140a33"><title>2026-01-08: 0</title></rect><rect x="276" y="117" width="10" height="10" rx="2.5" fill="#140a33"><title>2026-01-09: 0</title></rect><rect x="276" y="130" width="10" height="10" rx="2.5" fill="#140a33"><title>2026-01-10: 0</title></rect><rect x="289" y="52" width="10" height="10" rx="2.5" fill="#140a33"><title>2026-01-11: 0</title></rect><rect x="289" y="65" width="10" height="10" rx="2.5" fill="#140a33"><title>2026-01-12: 0</title></rect><rect x="289" y="78" width="10" height="10" rx="2.5" fill="#140a33"><title>2026-01-13: 0</title></rect><rect x="289" y="91" width="10" height="10" rx="2.5" fill="#140a33"><title>2026-01-14: 0</title></rect><rect x="289" y="104" width="10" height="10" rx="2.5" fill="#140a33"><title>2026-01-15: 0</title></rect><rect x="289" y="117" width="10" height="10" rx="2.5" fill="#140a33"><title>2026-01-16: 0</title></rect><rect x="289" y="130" width="10" height="10" rx="2.5" fill="#140a33"><title>2026-01-17: 0</title></rect><rect x="302" y="52" width="10" height="10" rx="2.5" fill="#140a33"><title>2026-01-18: 0</title></rect><rect x="302" y="65" width="10" height="10" rx="2.5" fill="#140a33"><title>2026-01-19: 0</title></rect><rect x="302" y="78" width="10" height="10" rx="2.5" fill="#140a33"><title>2026-01-20: 0</title></rect><rect x="302" y="91" width="10" height="10" rx="2.5" fill="#140a33"><title>2026-01-21: 0</title></rect><rect x="302" y="104" width="10" height="10" rx="2.5" fill="#140a33"><title>2026-01-22: 0</title></rect><rect x="302" y="117" width="10" height="10" rx="2.5" fill="#140a33"><title>2026-01-23: 0</title></rect><rect x="302" y="130" width="10" height="10" rx="2.5" fill="#140a33"><title>2026-01-24: 0</title></rect><rect x="315" y="52" width="10" height="10" rx="2.5" fill="#140a33"><title>2026-01-25: 0</title></rect><rect x="315" y="65" width="10" height="10" rx="2.5" fill="#140a33"><title>2026-01-26: 0</title></rect><rect x="315" y="78" width="10" height="10" rx="2.5" fill="#140a33"><title>2026-01-27: 0</title></rect><rect x="315" y="91" width="10" height="10" rx="2.5" fill="#140a33"><title>2026-01-28: 0</title></rect><rect x="315" y="104" width="10" height="10" rx="2.5" fill="#140a33"><title>2026-01-29: 0</title></rect><rect x="315" y="117" width="10" height="10" rx="2.5" fill="#140a33"><title>2026-01-30: 0</title></rect><rect x="315" y="130" width="10" height="10" rx="2.5" fill="#140a33"><title>2026-01-31: 0</title></rect><rect x="328" y="52" width="10" height="10" rx="2.5" fill="#140a33"><title>2026-02-01: 0</title></rect><rect x="328" y="65" width="10" height="10" rx="2.5" fill="#140a33"><title>2026-02-02: 0</title></rect><rect x="328" y="78" width="10" height="10" rx="2.5" fill="#140a33"><title>2026-02-03: 0</title></rect><rect x="328" y="91" width="10" height="10" rx="2.5" fill="#140a33"><title>2026-02-04: 0</title></rect><rect x="328" y="104" width="10" height="10" rx="2.5" fill="#140a33"><title>2026-02-05: 0</title></rect><rect x="328" y="117" width="10" height="10" rx="2.5" fill="#140a33"><title>2026-02-06: 0</title></rect><rect x="328" y="130" width="10" height="10" rx="2.5" fill="#140a33"><title>2026-02-07: 0</title></rect><rect x="341" y="52" width="10" height="10" rx="2.5" fill="#140a33"><title>2026-02-08: 0</title></rect><rect x="341" y="65" width="10" height="10" rx="2.5" fill="#140a33"><title>2026-02-09: 0</title></rect><rect x="341" y="78" width="10" height="10" rx="2.5" fill="#140a33"><title>2026-02-10: 0</title></rect><rect x="341" y="91" width="10" height="10" rx="2.5" fill="#140a33"><title>2026-02-11: 0</title></rect><rect x="341" y="104" width="10" height="10" rx="2.5" fill="#140a33"><title>2026-02-12: 0</title></rect><rect x="341" y="117" width="10" height="10" rx="2.5" fill="#140a33"><title>2026-02-13: 0</title></rect><rect x="341" y="130" width="10" height="10" rx="2.5" fill="#140a33"><title>2026-02-14: 0</title></rect><rect x="354" y="52" width="10" height="10" rx="2.5" fill="#140a33"><title>2026-02-15: 0</title></rect><rect x="354" y="65" width="10" height="10" rx="2.5" fill="#140a33"><title>2026-02-16: 0</title></rect><rect x="354" y="78" width="10" height="10" rx="2.5" fill="#140a33"><title>2026-02-17: 0</title></rect><rect x="354" y="91" width="10" height="10" rx="2.5" fill="#140a33"><title>2026-02-18: 0</title></rect><rect x="354" y="104" width="10" height="10" rx="2.5" fill="#140a33"><title>2026-02-19: 0</title></rect><rect x="354" y="117" width="10" height="10" rx="2.5" fill="#140a33"><title>2026-02-20: 0</title></rect><rect x="354" y="130" width="10" height="10" rx="2.5" fill="#140a33"><title>2026-02-21: 0</title></rect><rect x="367" y="52" width="10" height="10" rx="2.5" fill="#140a33"><title>2026-02-22: 0</title></rect><rect x="367" y="65" width="10" height="10" rx="2.5" fill="#140a33"><title>2026-02-23: 0</title></rect><rect x="367" y="78" width="10" height="10" rx="2.5" fill="#140a33"><title>2026-02-24: 0</title></rect><rect x="367" y="91" width="10" height="10" rx="2.5" fill="#140a33"><title>2026-02-25: 0</title></rect><rect x="367" y="104" width="10" height="10" rx="2.5" fill="#140a33"><title>2026-02-26: 0</title></rect><rect x="367" y="117" width="10" height="10" rx="2.5" fill="#140a33"><title>2026-02-27: 0</title></rect><rect x="367" y="130" width="10" height="10" rx="2.5" fill="#140a33"><title>2026-02-28: 0</title></rect><rect x="380" y="52" width="10" height="10" rx="2.5" fill="#140a33"><title>2026-03-01: 0</title></rect><rect x="380" y="65" width="10" height="10" rx="2.5" fill="#140a33"><title>2026-03-02: 0</title></rect><rect x="380" y="78" width="10" height="10" rx="2.5" fill="#140a33"><title>2026-03-03: 0</title></rect><rect x="380" y="91" width="10" height="10" rx="2.5" fill="#140a33"><title>2026-03-04: 0</title></rect><rect x="380" y="104" width="10" height="10" rx="2.5" fill="#140a33"><title>2026-03-05: 0</title></rect><rect x="380" y="117" width="10" height="10" rx="2.5" fill="#140a33"><title>2026-03-06: 0</title></rect><rect x="380" y="130" width="10" height="10" rx="2.5" fill="#140a33"><title>2026-03-07: 0</title></rect><rect x="393" y="52" width="10" height="10" rx="2.5" fill="#2e1065"><title>2026-03-08: 4</title></rect><rect x="393" y="65" width="10" height="10" rx="2.5" fill="#140a33"><title>2026-03-09: 0</title></rect><rect x="393" y="78" width="10" height="10" rx="2.5" fill="#140a33"><title>2026-03-10: 0</title></rect><rect x="393" y="91" width="10" height="10" rx="2.5" fill="#140a33"><title>2026-03-11: 0</title></rect><rect x="393" y="104" width="10" height="10" rx="2.5" fill="#140a33"><title>2026-03-12: 0</title></rect><rect x="393" y="117" width="10" height="10" rx="2.5" fill="#140a33"><title>2026-03-13: 0</title></rect><rect x="393" y="130" width="10" height="10" rx="2.5" fill="#140a33"><title>2026-03-14: 0</title></rect><rect x="406" y="52" width="10" height="10" rx="2.5" fill="#140a33"><title>2026-03-15: 0</title></rect><rect x="406" y="65" width="10" height="10" rx="2.5" fill="#140a33"><title>2026-03-16: 0</title></rect><rect x="406" y="78" width="10" height="10" rx="2.5" fill="#140a33"><title>2026-03-17: 0</title></rect><rect x="406" y="91" width="10" height="10" rx="2.5" fill="#140a33"><title>2026-03-18: 0</title></rect><rect x="406" y="104" width="10" height="10" rx="2.5" fill="#140a33"><title>2026-03-19: 0</title></rect><rect x="406" y="117" width="10" height="10" rx="2.5" fill="#140a33"><title>2026-03-20: 0</title></rect><rect x="406" y="130" width="10" height="10" rx="2.5" fill="#140a33"><title>2026-03-21: 0</title></rect><rect x="419" y="52" width="10" height="10" rx="2.5" fill="#140a33"><title>2026-03-22: 0</title></rect><rect x="419" y="65" width="10" height="10" rx="2.5" fill="#140a33"><title>2026-03-23: 0</title></rect><rect x="419" y="78" width="10" height="10" rx="2.5" fill="#140a33"><title>2026-03-24: 0</title></rect><rect x="419" y="91" width="10" height="10" rx="2.5" fill="#140a33"><title>2026-03-25: 0</title></rect><rect x="419" y="104" width="10" height="10" rx="2.5" fill="#140a33"><title>2026-03-26: 0</title></rect><rect x="419" y="117" width="10" height="10" rx="2.5" fill="#140a33"><title>2026-03-27: 0</title></rect><rect x="419" y="130" width="10" height="10" rx="2.5" fill="#140a33"><title>2026-03-28: 0</title></rect><rect x="432" y="52" width="10" height="10" rx="2.5" fill="#140a33"><title>2026-03-29: 0</title></rect><rect x="432" y="65" width="10" height="10" rx="2.5" fill="#140a33"><title>2026-03-30: 0</title></rect><rect x="432" y="78" width="10" height="10" rx="2.5" fill="#140a33"><title>2026-03-31: 0</title></rect><rect x="432" y="91" width="10" height="10" rx="2.5" fill="#140a33"><title>2026-04-01: 0</title></rect><rect x="432" y="104" width="10" height="10" rx="2.5" fill="#140a33"><title>2026-04-02: 0</title></rect><rect x="432" y="117" width="10" height="10" rx="2.5" fill="#140a33"><title>2026-04-03: 0</title></rect><rect x="432" y="130" width="10" height="10" rx="2.5" fill="#140a33"><title>2026-04-04: 0</title></rect><rect x="445" y="52" width="10" height="10" rx="2.5" fill="#140a33"><title>2026-04-05: 0</title></rect><rect x="445" y="65" width="10" height="10" rx="2.5" fill="#140a33"><title>2026-04-06: 0</title></rect><rect x="445" y="78" width="10" height="10" rx="2.5" fill="#140a33"><title>2026-04-07: 0</title></rect><rect x="445" y="91" width="10" height="10" rx="2.5" fill="#140a33"><title>2026-04-08: 0</title></rect><rect x="445" y="104" width="10" height="10" rx="2.5" fill="#140a33"><title>2026-04-09: 0</title></rect><rect x="445" y="117" width="10" height="10" rx="2.5" fill="#140a33"><title>2026-04-10: 0</title></rect><rect x="445" y="130" width="10" height="10" rx="2.5" fill="#140a33"><title>2026-04-11: 0</title></rect><rect x="458" y="52" width="10" height="10" rx="2.5" fill="#140a33"><title>2026-04-12: 0</title></rect><rect x="458" y="65" width="10" height="10" rx="2.5" fill="#140a33"><title>2026-04-13: 0</title></rect><rect x="458" y="78" width="10" height="10" rx="2.5" fill="#140a33"><title>2026-04-14: 0</title></rect><rect x="458" y="91" width="10" height="10" rx="2.5" fill="#140a33"><title>2026-04-15: 0</title></rect><rect x="458" y="104" width="10" height="10" rx="2.5" fill="#140a33"><title>2026-04-16: 0</title></rect><rect x="458" y="117" width="10" height="10" rx="2.5" fill="#140a33"><title>2026-04-17: 0</title></rect><rect x="458" y="130" width="10" height="10" rx="2.5" fill="#140a33"><title>2026-04-18: 0</title></rect><rect x="471" y="52" width="10" height="10" rx="2.5" fill="#140a33"><title>2026-04-19: 0</title></rect><rect x="471" y="65" width="10" height="10" rx="2.5" fill="#140a33"><title>2026-04-20: 0</title></rect><rect x="471" y="78" width="10" height="10" rx="2.5" fill="#140a33"><title>2026-04-21: 0</title></rect><rect x="471" y="91" width="10" height="10" rx="2.5" fill="#140a33"><title>2026-04-22: 0</title></rect><rect x="471" y="104" width="10" height="10" rx="2.5" fill="#140a33"><title>2026-04-23: 0</title></rect><rect x="471" y="117" width="10" height="10" rx="2.5" fill="#140a33"><title>2026-04-24: 0</title></rect><rect x="471" y="130" width="10" height="10" rx="2.5" fill="#140a33"><title>2026-04-25: 0</title></rect><rect x="484" y="52" width="10" height="10" rx="2.5" fill="#140a33"><title>2026-04-26: 0</title></rect><rect x="484" y="65" width="10" height="10" rx="2.5" fill="#140a33"><title>2026-04-27: 0</title></rect><rect x="484" y="78" width="10" height="10" rx="2.5" fill="#140a33"><title>2026-04-28: 0</title></rect><rect x="484" y="91" width="10" height="10" rx="2.5" fill="#140a33"><title>2026-04-29: 0</title></rect><rect x="484" y="104" width="10" height="10" rx="2.5" fill="#140a33"><title>2026-04-30: 0</title></rect><rect x="484" y="117" width="10" height="10" rx="2.5" fill="#140a33"><title>2026-05-01: 0</title></rect><rect x="484" y="130" width="10" height="10" rx="2.5" fill="#140a33"><title>2026-05-02: 0</title></rect><rect x="497" y="52" width="10" height="10" rx="2.5" fill="#140a33"><title>2026-05-03: 0</title></rect><rect x="497" y="65" width="10" height="10" rx="2.5" fill="#140a33"><title>2026-05-04: 0</title></rect><rect x="497" y="78" width="10" height="10" rx="2.5" fill="#140a33"><title>2026-05-05: 0</title></rect><rect x="497" y="91" width="10" height="10" rx="2.5" fill="#140a33"><title>2026-05-06: 0</title></rect><rect x="497" y="104" width="10" height="10" rx="2.5" fill="#140a33"><title>2026-05-07: 0</title></rect><rect x="497" y="117" width="10" height="10" rx="2.5" fill="#140a33"><title>2026-05-08: 0</title></rect><rect x="497" y="130" width="10" height="10" rx="2.5" fill="#140a33"><title>2026-05-09: 0</title></rect><rect x="510" y="52" width="10" height="10" rx="2.5" fill="#140a33"><title>2026-05-10: 0</title></rect><rect x="510" y="65" width="10" height="10" rx="2.5" fill="#140a33"><title>2026-05-11: 0</title></rect><rect x="510" y="78" width="10" height="10" rx="2.5" fill="#140a33"><title>2026-05-12: 0</title></rect><rect x="510" y="91" width="10" height="10" rx="2.5" fill="#140a33"><title>2026-05-13: 0</title></rect><rect x="510" y="104" width="10" height="10" rx="2.5" fill="#140a33"><title>2026-05-14: 0</title></rect><rect x="510" y="117" width="10" height="10" rx="2.5" fill="#140a33"><title>2026-05-15: 0</title></rect><rect x="510" y="130" width="10" height="10" rx="2.5" fill="#140a33"><title>2026-05-16: 0</title></rect><rect x="523" y="52" width="10" height="10" rx="2.5" fill="#140a33"><title>2026-05-17: 0</title></rect><rect x="523" y="65" width="10" height="10" rx="2.5" fill="#140a33"><title>2026-05-18: 0</title></rect><rect x="523" y="78" width="10" height="10" rx="2.5" fill="#140a33"><title>2026-05-19: 0</title></rect><rect x="523" y="91" width="10" height="10" rx="2.5" fill="#140a33"><title>2026-05-20: 0</title></rect><rect x="523" y="104" width="10" height="10" rx="2.5" fill="#140a33"><title>2026-05-21: 0</title></rect><rect x="523" y="117" width="10" height="10" rx="2.5" fill="#140a33"><title>2026-05-22: 0</title></rect><rect x="523" y="130" width="10" height="10" rx="2.5" fill="#140a33"><title>2026-05-23: 0</title></rect><rect x="536" y="52" width="10" height="10" rx="2.5" fill="#140a33"><title>2026-05-24: 0</title></rect><rect x="536" y="65" width="10" height="10" rx="2.5" fill="#140a33"><title>2026-05-25: 0</title></rect><rect x="536" y="78" width="10" height="10" rx="2.5" fill="#140a33"><title>2026-05-26: 0</title></rect><rect x="536" y="91" width="10" height="10" rx="2.5" fill="#140a33"><title>2026-05-27: 0</title></rect><rect x="536" y="104" width="10" height="10" rx="2.5" fill="#140a33"><title>2026-05-28: 0</title></rect><rect x="536" y="117" width="10" height="10" rx="2.5" fill="#140a33"><title>2026-05-29: 0</title></rect><rect x="536" y="130" width="10" height="10" rx="2.5" fill="#140a33"><title>2026-05-30: 0</title></rect><rect x="549" y="52" width="10" height="10" rx="2.5" fill="#140a33"><title>2026-05-31: 0</title></rect><rect x="549" y="65" width="10" height="10" rx="2.5" fill="#140a33"><title>2026-06-01: 0</title></rect><rect x="549" y="78" width="10" height="10" rx="2.5" fill="#140a33"><title>2026-06-02: 0</title></rect><rect x="549" y="91" width="10" height="10" rx="2.5" fill="#140a33"><title>2026-06-03: 0</title></rect><rect x="549" y="104" width="10" height="10" rx="2.5" fill="#140a33"><title>2026-06-04: 0</title></rect><rect x="549" y="117" width="10" height="10" rx="2.5" fill="#140a33"><title>2026-06-05: 0</title></rect><rect x="549" y="130" width="10" height="10" rx="2.5" fill="#140a33"><title>2026-06-06: 0</title></rect><rect x="562" y="52" width="10" height="10" rx="2.5" fill="#140a33"><title>2026-06-07: 0</title></rect><rect x="562" y="65" width="10" height="10" rx="2.5" fill="#140a33"><title>2026-06-08: 0</title></rect><rect x="562" y="78" width="10" height="10" rx="2.5" fill="#140a33"><title>2026-06-09: 0</title></rect><rect x="562" y="91" width="10" height="10" rx="2.5" fill="#140a33"><title>2026-06-10: 0</title></rect><rect x="562" y="104" width="10" height="10" rx="2.5" fill="#140a33"><title>2026-06-11: 0</title></rect><rect x="562" y="117" width="10" height="10" rx="2.5" fill="#140a33"><title>2026-06-12: 0</title></rect><rect x="562" y="130" width="10" height="10" rx="2.5" fill="#140a33"><title>2026-06-13: 0</title></rect><rect x="575" y="52" width="10" height="10" rx="2.5" fill="#140a33"><title>2026-06-14: 0</title></rect><rect x="575" y="65" width="10" height="10" rx="2.5" fill="#140a33"><title>2026-06-15: 0</title></rect><rect x="575" y="78" width="10" height="10" rx="2.5" fill="#140a33"><title>2026-06-16: 0</title></rect><rect x="575" y="91" width="10" height="10" rx="2.5" fill="#140a33"><title>2026-06-17: 0</title></rect><rect x="575" y="104" width="10" height="10" rx="2.5" fill="#140a33"><title>2026-06-18: 0</title></rect><rect x="575" y="117" width="10" height="10" rx="2.5" fill="#140a33"><title>2026-06-19: 0</title></rect><rect x="575" y="130" width="10" height="10" rx="2.5" fill="#140a33"><title>2026-06-20: 0</title></rect><rect x="588" y="52" width="10" height="10" rx="2.5" fill="#140a33"><title>2026-06-21: 0</title></rect><rect x="588" y="65" width="10" height="10" rx="2.5" fill="#140a33"><title>2026-06-22: 0</title></rect><rect x="588" y="78" width="10" height="10" rx="2.5" fill="#140a33"><title>2026-06-23: 0</title></rect><rect x="588" y="91" width="10" height="10" rx="2.5" fill="#140a33"><title>2026-06-24: 0</title></rect><rect x="588" y="104" width="10" height="10" rx="2.5" fill="#140a33"><title>2026-06-25: 0</title></rect><rect x="588" y="117" width="10" height="10" rx="2.5" fill="#140a33"><title>2026-06-26: 0</title></rect><rect x="588" y="130" width="10" height="10" rx="2.5" fill="#140a33"><title>2026-06-27: 0</title></rect><rect x="601" y="52" width="10" height="10" rx="2.5" fill="#140a33"><title>2026-06-28: 0</title></rect><rect x="601" y="65" width="10" height="10" rx="2.5" fill="#140a33"><title>2026-06-29: 0</title></rect><rect x="601" y="78" width="10" height="10" rx="2.5" fill="#140a33"><title>2026-06-30: 0</title></rect><rect x="601" y="91" width="10" height="10" rx="2.5" fill="#140a33"><title>2026-07-01: 0</title></rect><rect x="601" y="104" width="10" height="10" rx="2.5" fill="#140a33"><title>2026-07-02: 0</title></rect><rect x="601" y="117" width="10" height="10" rx="2.5" fill="#140a33"><title>2026-07-03: 0</title></rect><rect x="601" y="130" width="10" height="10" rx="2.5" fill="#140a33"><title>2026-07-04: 0</title></rect><rect x="614" y="52" width="10" height="10" rx="2.5" fill="#140a33"><title>2026-07-05: 0</title></rect><rect x="614" y="65" width="10" height="10" rx="2.5" fill="#140a33"><title>2026-07-06: 0</title></rect><rect x="614" y="78" width="10" height="10" rx="2.5" fill="#140a33"><title>2026-07-07: 0</title></rect><rect x="614" y="91" width="10" height="10" rx="2.5" fill="#140a33"><title>2026-07-08: 0</title></rect><rect x="614" y="104" width="10" height="10" rx="2.5" fill="#140a33"><title>2026-07-09: 0</title></rect><rect x="614" y="117" width="10" height="10" rx="2.5" fill="#140a33"><title>2026-07-10: 0</title></rect><rect x="614" y="130" width="10" height="10" rx="2.5" fill="#140a33"><title>2026-07-11: 0</title></rect><rect x="627" y="52" width="10" height="10" rx="2.5" fill="#140a33"><title>2026-07-12: 0</title></rect><rect x="627" y="65" width="10" height="10" rx="2.5" fill="#140a33"><title>2026-07-13: 0</title></rect><rect x="627" y="78" width="10" height="10" rx="2.5" fill="#140a33"><title>2026-07-14: 0</title></rect><rect x="627" y="91" width="10" height="10" rx="2.5" fill="#140a33"><title>2026-07-15: 0</title></rect><rect x="627" y="104" width="10" height="10" rx="2.5" fill="#140a33"><title>2026-07-16: 0</title></rect><rect x="627" y="117" width="10" height="10" rx="2.5" fill="#140a33"><title>2026-07-17: 0</title></rect><rect x="627" y="130" width="10" height="10" rx="2.5" fill="#140a33"><title>2026-07-18: 0</title></rect><rect x="640" y="52" width="10" height="10" rx="2.5" fill="#140a33"><title>2026-07-19: 0</title></rect><rect x="640" y="65" width="10" height="10" rx="2.5" fill="#140a33"><title>2026-07-20: 0</title></rect><rect x="640" y="78" width="10" height="10" rx="2.5" fill="#140a33"><title>2026-07-21: 0</title></rect><rect x="640" y="91" width="10" height="10" rx="2.5" fill="#140a33"><title>2026-07-22: 0</title></rect><rect x="640" y="104" width="10" height="10" rx="2.5" fill="#140a33"><title>2026-07-23: 0</title></rect><rect x="640" y="117" width="10" height="10" rx="2.5" fill="#140a33"><title>2026-07-24: 0</title></rect><rect x="640" y="130" width="10" height="10" rx="2.5" fill="#140a33"><title>2026-07-25: 0</title></rect><rect x="653" y="52" width="10" height="10" rx="2.5" fill="#140a33"><title>2026-07-26: 0</title></rect><rect x="653" y="65" width="10" height="10" rx="2.5" fill="#140a33"><title>2026-07-27: 0</title></rect><rect x="653" y="78" width="10" height="10" rx="2.5" fill="#140a33"><title>2026-07-28: 0</title></rect><rect x="653" y="91" width="10" height="10" rx="2.5" fill="#140a33"><title>2026-07-29: 0</title></rect><rect x="653" y="104" width="10" height="10" rx="2.5" fill="#140a33"><title>2026-07-30: 0</title></rect><rect x="653" y="117" width="10" height="10" rx="2.5" fill="#140a33"><title>2026-07-31: 0</title></rect><rect x="653" y="130" width="10" height="10" rx="2.5" fill="#140a33"><title>2026-08-01: 0</title></rect><rect x="666" y="52" width="10" height="10" rx="2.5" fill="#140a33"><title>2026-08-02: 0</title></rect><rect x="666" y="65" width="10" height="10" rx="2.5" fill="#140a33"><title>2026-08-03: 0</title></rect><rect x="666" y="78" width="10" height="10" rx="2.5" fill="#140a33"><title>2026-08-04: 0</title></rect><rect x="666" y="91" width="10" height="10" rx="2.5" fill="#140a33"><title>2026-08-05: 0</title></rect><rect x="666" y="104" width="10" height="10" rx="2.5" fill="#140a33"><title>2026-08-06: 0</title></rect><rect x="666" y="117" width="10" height="10" rx="2.5" fill="#140a33"><title>2026-08-07: 0</title></rect><rect x="666" y="130" width="10" height="10" rx="2.5" fill="#140a33"><title>2026-08-08: 0</title></rect><rect x="679" y="52" width="10" height="10" rx="2.5" fill="#140a33"><title>2026-08-09: 0</title></rect><rect x="679" y="65" width="10" height="10" rx="2.5" fill="#140a33"><title>2026-08-10: 0</title></rect><rect x="679" y="78" width="10" height="10" rx="2.5" fill="#140a33"><title>2026-08-11: 0</title></rect><rect x="679" y="91" width="10" height="10" rx="2.5" fill="#140a33"><title>2026-08-12: 0</title></rect><rect x="679" y="104" width="10" height="10" rx="2.5" fill="#140a33"><title>2026-08-13: 0</title></rect><rect x="679" y="117" width="10" height="10" rx="2.5" fill="#140a33"><title>2026-08-14: 0</title></rect><rect x="679" y="130" width="10" height="10" rx="2.5" fill="#140a33"><title>2026-08-15: 0</title></rect><rect x="692" y="52" width="10" height="10" rx="2.5" fill="#140a33"><title>2026-08-16: 0</title></rect><rect x="692" y="65" width="10" height="10" rx="2.5" fill="#140a33"><title>2026-08-17: 0</title></rect><rect x="692" y="78" width="10" height="10" rx="2.5" fill="#140a33"><title>2026-08-18: 0</title></rect><rect x="692" y="91" width="10" height="10" rx="2.5" fill="#140a33"><title>2026-08-19: 0</title></rect><rect x="692" y="104" width="10" height="10" rx="2.5" fill="#140a33"><title>2026-08-20: 0</title></rect><rect x="692" y="117" width="10" height="10" rx="2.5" fill="#140a33"><title>2026-08-21: 0</title></rect><rect x="692" y="130" width="10" height="10" rx="2.5" fill="#140a33"><title>2026-08-22: 0</title></rect><rect x="705" y="52" width="10" height="10" rx="2.5" fill="#140a33"><title>2026-08-23: 0</title></rect><rect x="705" y="65" width="10" height="10" rx="2.5" fill="#140a33"><title>2026-08-24: 0</title></rect><rect x="705" y="78" width="10" height="10" rx="2.5" fill="#140a33"><title>2026-08-25: 0</title></rect><rect x="705" y="91" width="10" height="10" rx="2.5" fill="#140a33"><title>2026-08-26: 0</title></rect><rect x="705" y="104" width="10" height="10" rx="2.5" fill="#140a33"><title>2026-08-27: 0</title></rect><rect x="705" y="117" width="10" height="10" rx="2.5" fill="#140a33"><title>2026-08-28: 0</title></rect><rect x="705" y="130" width="10" height="10" rx="2.5" fill="#140a33"><title>2026-08-29: 0</title></rect><rect x="718" y="52" width="10" height="10" rx="2.5" fill="#140a33"><title>2026-08-30: 0</title></rect><rect x="718" y="65" width="10" height="10" rx="2.5" fill="#140a33"><title>2026-08-31: 0</title></rect><rect x="718" y="78" width="10" height="10" rx="2.5" fill="#140a33"><title>2026-09-01: 0</title></rect><rect x="718" y="91" width="10" height="10" rx="2.5" fill="#140a33"><title>2026-09-02: 0</title></rect><rect x="718" y="104" width="10" height="10" rx="2.5" fill="#140a33"><title>2026-09-03: 0</title></rect><rect x="718" y="117" width="10" height="10" rx="2.5" fill="#140a33"><title>2026-09-04: 0</title></rect><rect x="718" y="130" width="10" height="10" rx="2.5" fill="#140a33"><title>2026-09-05: 0</title></rect><rect x="731" y="52" width="10" height="10" rx="2.5" fill="#140a33"><title>2026-09-06: 0</title></rect><rect x="731" y="65" width="10" height="10" rx="2.5" fill="#140a33"><title>2026-09-07: 0</title></rect><rect x="731" y="78" width="10" height="10" rx="2.5" fill="#140a33"><title>2026-09-08: 0</title></rect><rect x="731" y="91" width="10" height="10" rx="2.5" fill="#140a33"><title>2026-09-09: 0</title></rect><rect x="731" y="104" width="10" height="10" rx="2.5" fill="#140a33"><title>2026-09-10: 0</title></rect><rect x="731" y="117" width="10" height="10" rx="2.5" fill="#140a33"><title>2026-09-11: 0</title></rect><rect x="731" y="130" width="10" height="10" rx="2.5" fill="#140a33"><title>2026-09-12: 0</title></rect><rect x="744" y="52" width="10" height="10" rx="2.5" fill="#140a33"><title>2026-09-13: 0</title></rect><rect x="744" y="65" width="10" height="10" rx="2.5" fill="#140a33"><title>2026-09-14: 0</title></rect><rect x="744" y="78" width="10" height="10" rx="2.5" fill="#140a33"><title>2026-09-15: 0</title></rect><rect x="744" y="91" width="10" height="10" rx="2.5" fill="#140a33"><title>2026-09-16: 0</title></rect><rect x="744" y="104" width="10" height="10" rx="2.5" fill="#140a33"><title>2026-09-17: 0</title></rect><rect x="744" y="117" width="10" height="10" rx="2.5" fill="#140a33"><title>2026-09-18: 0</title></rect><rect x="744" y="130" width="10" height="10" rx="2.5" fill="#140a33"><title>2026-09-19: 0</title></rect><rect x="757" y="52" width="10" height="10" rx="2.5" fill="#140a33"><title>2026-09-20: 0</title></rect><rect x="757" y="65" width="10" height="10" rx="2.5" fill="#140a33"><title>2026-09-21: 0</title></rect><rect x="757" y="78" width="10" height="10" rx="2.5" fill="#a855f7"><title>2026-09-22: 12</title></rect><rect x="757" y="91" width="10" height="10" rx="2.5" fill="#e9d5ff"><title>2026-09-23: 16</title></rect><rect x="757" y="104" width="10" height="10" rx="2.5" fill="#2e1065"><title>2026-09-24: 3</title></rect><rect x="757" y="117" width="10" height="10" rx="2.5" fill="#140a33"><title>2026-09-25: 0</title></rect><rect x="757" y="130" width="10" height="10" rx="2.5" fill="#140a33"><title>2026-09-26: 0</title></rect><rect x="770" y="52" width="10" height="10" rx="2.5" fill="#140a33"><title>2026-09-27: 0</title></rect><rect x="770" y="65" width="10" height="10" rx="2.5" fill="#140a33"><title>2026-09-28: 0</title></rect><rect x="770" y="78" width="10" height="10" rx="2.5" fill="#2e1065"><title>2026-09-29: 1</title></rect><rect x="770" y="91" width="10" height="10" rx="2.5" fill="#140a33"><title>2026-09-30: 0</title></rect><rect x="770" y="104" width="10" height="10" rx="2.5" fill="#140a33"><title>2026-10-01: 0</title></rect><rect x="770" y="117" width="10" height="10" rx="2.5" fill="#140a33"><title>2026-10-02: 0</title></rect><rect x="770" y="130" width="10" height="10" rx="2.5" fill="#140a33"><title>2026-10-03: 0</title></rect><rect x="783" y="52" width="10" height="10" rx="2.5" fill="#140a33"><title>2026-10-04: 0</title></rect>
  <g clip-path="url(#grid)">
    <rect x="7" y="52" width="100" height="91" fill="url(#sweep)">
      <animate attributeName="x" values="7;7;900" keyTimes="0;.6;1" dur="7s" repeatCount="indefinite"/>
    </rect>
  </g></svg>
