<svg xmlns="http://www.w3.org/2000/svg" width="440" height="210" viewBox="0 0 440 210" fill="none">
  
  <defs>
    <linearGradient id="lgb" x1="0" y1="0" x2="1" y2="1">
      <stop offset="0" stop-color="#c084fc"/><stop offset=".5" stop-color="#7c3aed"/><stop offset="1" stop-color="#2e1065"/>
    </linearGradient>
    <linearGradient id="lgf" x1="0" y1="0" x2="0" y2="1">
      <stop offset="0" stop-color="#1c0a45"/><stop offset="1" stop-color="#0d0221"/>
    </linearGradient>
  </defs>
  <rect x="1" y="1" width="438" height="208" rx="16" fill="url(#lgf)" stroke="url(#lgb)" stroke-width="2"/>
  <clipPath id="bar"><rect x="28" y="58" width="384" height="12" rx="6"/></clipPath>
  <text x="28" y="40" font-family="'Segoe UI', Ubuntu, 'Helvetica Neue', Arial, sans-serif" font-size="18" font-weight="700" fill="#c084fc">Языки</text>
  <rect x="28" y="58" width="384" height="12" rx="6" fill="#2e1065"/>
  <g clip-path="url(#bar)"><rect x="28.0" y="58" width="192.2" height="12" fill="#c084fc"/><rect x="220.2" y="58" width="152.0" height="12" fill="#a855f7"/><rect x="372.2" y="58" width="23.4" height="12" fill="#7c3aed"/><rect x="395.6" y="58" width="10.4" height="12" fill="#5b21b6"/><rect x="405.9" y="58" width="3.5" height="12" fill="#d8b4fe"/><rect x="409.5" y="58" width="1.4" height="12" fill="#6d28d9"/></g>
  <circle cx="34" cy="97" r="6" fill="#c084fc"/>
    <text x="48" y="102" font-family="'Segoe UI', Ubuntu, 'Helvetica Neue', Arial, sans-serif" font-size="14" fill="#e9d5ff">Python</text>
    <text x="208" y="102" text-anchor="end" font-family="'Segoe UI', Ubuntu, 'Helvetica Neue', Arial, sans-serif" font-size="13" font-weight="700" fill="#a78bfa">50.1%</text><circle cx="234" cy="97" r="6" fill="#a855f7"/>
    <text x="248" y="102" font-family="'Segoe UI', Ubuntu, 'Helvetica Neue', Arial, sans-serif" font-size="14" fill="#e9d5ff">JavaScript</text>
    <text x="408" y="102" text-anchor="end" font-family="'Segoe UI', Ubuntu, 'Helvetica Neue', Arial, sans-serif" font-size="13" font-weight="700" fill="#a78bfa">39.6%</text><circle cx="34" cy="129" r="6" fill="#7c3aed"/>
    <text x="48" y="134" font-family="'Segoe UI', Ubuntu, 'Helvetica Neue', Arial, sans-serif" font-size="14" fill="#e9d5ff">Lua</text>
    <text x="208" y="134" text-anchor="end" font-family="'Segoe UI', Ubuntu, 'Helvetica Neue', Arial, sans-serif" font-size="13" font-weight="700" fill="#a78bfa">6.1%</text><circle cx="234" cy="129" r="6" fill="#5b21b6"/>
    <text x="248" y="134" font-family="'Segoe UI', Ubuntu, 'Helvetica Neue', Arial, sans-serif" font-size="14" fill="#e9d5ff">CSS</text>
    <text x="408" y="134" text-anchor="end" font-family="'Segoe UI', Ubuntu, 'Helvetica Neue', Arial, sans-serif" font-size="13" font-weight="700" fill="#a78bfa">2.7%</text><circle cx="34" cy="161" r="6" fill="#d8b4fe"/>
    <text x="48" y="166" font-family="'Segoe UI', Ubuntu, 'Helvetica Neue', Arial, sans-serif" font-size="14" fill="#e9d5ff">Java</text>
    <text x="208" y="166" text-anchor="end" font-family="'Segoe UI', Ubuntu, 'Helvetica Neue', Arial, sans-serif" font-size="13" font-weight="700" fill="#a78bfa">0.9%</text><circle cx="234" cy="161" r="6" fill="#6d28d9"/>
    <text x="248" y="166" font-family="'Segoe UI', Ubuntu, 'Helvetica Neue', Arial, sans-serif" font-size="14" fill="#e9d5ff">HTML</text>
    <text x="408" y="166" text-anchor="end" font-family="'Segoe UI', Ubuntu, 'Helvetica Neue', Arial, sans-serif" font-size="13" font-weight="700" fill="#a78bfa">0.4%</text></svg>
