<svg xmlns="http://www.w3.org/2000/svg" width="1200" height="600" viewBox="0 0 1200 600" fill="none">
  
  <defs>
    <linearGradient id="mxb"><stop offset="0" stop-color="#24124f"/></linearGradient>
    <radialGradient id="mxn" cx=".9" cy="0" r="1"><stop offset="0" stop-color="#7c3aed" stop-opacity=".2"/><stop offset="1" stop-color="#7c3aed" stop-opacity="0"/></radialGradient>
    <clipPath id="mxc"><rect x="1" y="1" width="1198" height="598" rx="16"/></clipPath>
  </defs>
  <rect x="1" y="1" width="1198" height="598" rx="16" fill="#0b0424"/>
  <rect x="1" y="1" width="1198" height="598" rx="16" fill="url(#mxn)"/>
  <rect x="1" y="1" width="1198" height="598" rx="16" stroke="url(#mxb)" stroke-width="1"/>
  <defs>
    <linearGradient id="bar" x1="0" y1="1" x2="0" y2="0"><stop offset="0" stop-color="#6d28d9"/><stop offset="1" stop-color="#c084fc"/></linearGradient>
    <radialGradient id="mxg" cx="0" cy="0" r="1" gradientUnits="userSpaceOnUse" gradientTransform="translate(600 200) scale(520 220)">
      <stop offset="0" stop-color="#7c3aed" stop-opacity=".18"/><stop offset="1" stop-color="#7c3aed" stop-opacity="0"/>
    </radialGradient>
    <filter id="bglow" x="-50%" y="-20%" width="200%" height="140%"><feGaussianBlur stdDeviation="4"/></filter>
    <linearGradient id="scan" x1="0" y1="0" x2="0" y2="1"><stop offset="0" stop-color="#c084fc" stop-opacity="0"/><stop offset=".5" stop-color="#c084fc" stop-opacity=".6"/><stop offset="1" stop-color="#c084fc" stop-opacity="0"/></linearGradient>
    <clipPath id="segs"><rect x="40" y="486" width="1120" height="6" rx="3"/></clipPath>
  </defs>
  <rect x="1" y="1" width="1198" height="598" rx="16" fill="url(#mxg)"/>
  <g clip-path="url(#mxc)"><circle cx="1004" cy="536" r="1.1" fill="#f5f3ff"><animate attributeName="opacity" values=".1;.9;.1" dur="5.7s" begin="-4.9s" repeatCount="indefinite"/></circle><circle cx="693" cy="191" r="1.0" fill="#f5f3ff"><animate attributeName="opacity" values=".1;.9;.1" dur="2.7s" begin="-0.0s" repeatCount="indefinite"/></circle><circle cx="576" cy="186" r="0.9" fill="#c084fc"><animate attributeName="opacity" values=".1;.9;.1" dur="3.0s" begin="-0.7s" repeatCount="indefinite"/></circle><circle cx="857" cy="143" r="0.7" fill="#f5f3ff"><animate attributeName="opacity" values=".1;.9;.1" dur="5.9s" begin="-4.3s" repeatCount="indefinite"/></circle><circle cx="366" cy="569" r="1.3" fill="#f5f3ff"><animate attributeName="opacity" values=".1;.9;.1" dur="2.6s" begin="-2.7s" repeatCount="indefinite"/></circle><circle cx="924" cy="456" r="1.0" fill="#c084fc"><animate attributeName="opacity" values=".1;.9;.1" dur="2.4s" begin="-3.0s" repeatCount="indefinite"/></circle><circle cx="781" cy="55" r="0.9" fill="#f5f3ff"><animate attributeName="opacity" values=".1;.9;.1" dur="4.5s" begin="-1.9s" repeatCount="indefinite"/></circle><circle cx="224" cy="74" r="0.3" fill="#f5f3ff"><animate attributeName="opacity" values=".1;.9;.1" dur="5.1s" begin="-1.7s" repeatCount="indefinite"/></circle><circle cx="1033" cy="262" r="1.0" fill="#c084fc"><animate attributeName="opacity" values=".1;.9;.1" dur="5.9s" begin="-1.5s" repeatCount="indefinite"/></circle><circle cx="298" cy="520" r="0.5" fill="#f5f3ff"><animate attributeName="opacity" values=".1;.9;.1" dur="3.0s" begin="-2.7s" repeatCount="indefinite"/></circle><circle cx="98" cy="535" r="1.1" fill="#c084fc"><animate attributeName="opacity" values=".1;.9;.1" dur="2.1s" begin="-3.3s" repeatCount="indefinite"/></circle><circle cx="1050" cy="535" r="1.0" fill="#c084fc"><animate attributeName="opacity" values=".1;.9;.1" dur="2.4s" begin="-4.6s" repeatCount="indefinite"/></circle><circle cx="586" cy="21" r="1.2" fill="#f5f3ff"><animate attributeName="opacity" values=".1;.9;.1" dur="3.6s" begin="-4.2s" repeatCount="indefinite"/></circle><circle cx="868" cy="209" r="0.6" fill="#c084fc"><animate attributeName="opacity" values=".1;.9;.1" dur="5.5s" begin="-0.2s" repeatCount="indefinite"/></circle><circle cx="314" cy="298" r="1.3" fill="#f5f3ff"><animate attributeName="opacity" values=".1;.9;.1" dur="5.1s" begin="-0.5s" repeatCount="indefinite"/></circle><circle cx="496" cy="394" r="1.2" fill="#f5f3ff"><animate attributeName="opacity" values=".1;.9;.1" dur="2.3s" begin="-3.4s" repeatCount="indefinite"/></circle><circle cx="1083" cy="542" r="0.6" fill="#f5f3ff"><animate attributeName="opacity" values=".1;.9;.1" dur="2.9s" begin="-4.3s" repeatCount="indefinite"/></circle><circle cx="584" cy="175" r="1.0" fill="#c084fc"><animate attributeName="opacity" values=".1;.9;.1" dur="4.5s" begin="-4.5s" repeatCount="indefinite"/></circle><circle cx="451" cy="69" r="0.5" fill="#f5f3ff"><animate attributeName="opacity" values=".1;.9;.1" dur="3.7s" begin="-0.8s" repeatCount="indefinite"/></circle><circle cx="630" cy="218" r="1.1" fill="#f5f3ff"><animate attributeName="opacity" values=".1;.9;.1" dur="3.9s" begin="-4.4s" repeatCount="indefinite"/></circle><circle cx="392" cy="450" r="0.6" fill="#f5f3ff"><animate attributeName="opacity" values=".1;.9;.1" dur="3.1s" begin="-4.6s" repeatCount="indefinite"/></circle><circle cx="1049" cy="560" r="0.5" fill="#c084fc"><animate attributeName="opacity" values=".1;.9;.1" dur="2.2s" begin="-2.0s" repeatCount="indefinite"/></circle><circle cx="300" cy="45" r="1.0" fill="#f5f3ff"><animate attributeName="opacity" values=".1;.9;.1" dur="5.7s" begin="-0.8s" repeatCount="indefinite"/></circle><circle cx="692" cy="58" r="0.7" fill="#f5f3ff"><animate attributeName="opacity" values=".1;.9;.1" dur="5.3s" begin="-3.7s" repeatCount="indefinite"/></circle><circle cx="833" cy="268" r="1.0" fill="#c084fc"><animate attributeName="opacity" values=".1;.9;.1" dur="3.0s" begin="-3.3s" repeatCount="indefinite"/></circle><circle cx="223" cy="19" r="0.6" fill="#f5f3ff"><animate attributeName="opacity" values=".1;.9;.1" dur="6.0s" begin="-3.2s" repeatCount="indefinite"/></circle><circle cx="148" cy="163" r="0.5" fill="#f5f3ff"><animate attributeName="opacity" values=".1;.9;.1" dur="4.9s" begin="-0.5s" repeatCount="indefinite"/></circle><circle cx="1158" cy="189" r="0.8" fill="#f5f3ff"><animate attributeName="opacity" values=".1;.9;.1" dur="2.9s" begin="-2.5s" repeatCount="indefinite"/></circle><circle cx="1109" cy="63" r="0.5" fill="#f5f3ff"><animate attributeName="opacity" values=".1;.9;.1" dur="4.6s" begin="-2.2s" repeatCount="indefinite"/></circle><circle cx="76" cy="191" r="1.2" fill="#f5f3ff"><animate attributeName="opacity" values=".1;.9;.1" dur="3.8s" begin="-1.5s" repeatCount="indefinite"/></circle></g>
  <text x="40" y="46" text-anchor="start" font-family="'JetBrains Mono', Consolas, 'DejaVu Sans Mono', Menlo, monospace" font-size="12" fill="#f5f3ff" letter-spacing="2.5">GITHUB // ORBIT</text>
  <text x="1160" y="46" text-anchor="end" font-family="'JetBrains Mono', Consolas, 'DejaVu Sans Mono', Menlo, monospace" font-size="10" fill="#c084fc" letter-spacing="2.5">PUBLIC DATA</text>
  <rect x="40" y="64" width="1120" height="1" fill="#24124f"/>

  
  <defs>
    <linearGradient id="rg1" x1="0" y1="0" x2="1" y2="1"><stop offset="0" stop-color="#e9d5ff"/><stop offset="1" stop-color="#7c3aed"/></linearGradient>
    <radialGradient id="rg1h"><stop offset=".55" stop-color="#7c3aed" stop-opacity=".25"/><stop offset="1" stop-color="#7c3aed" stop-opacity="0"/></radialGradient>
    <filter id="rg1f" x="-30%" y="-30%" width="160%" height="160%"><feGaussianBlur stdDeviation="5"/></filter>
  </defs>
  <circle cx="180" cy="200" r="86" stroke="#24124f" stroke-opacity=".6"/>
  <circle cx="180" cy="200" r="64" fill="#06021a" stroke="#24124f" stroke-width="6"/>
  <path d="M180 150 V154" stroke="#24124f" transform="rotate(0 180 200)"/><path d="M180 150 V154" stroke="#24124f" transform="rotate(6 180 200)"/><path d="M180 150 V154" stroke="#24124f" transform="rotate(12 180 200)"/><path d="M180 150 V154" stroke="#24124f" transform="rotate(18 180 200)"/><path d="M180 150 V154" stroke="#24124f" transform="rotate(24 180 200)"/><path d="M180 150 V154" stroke="#24124f" transform="rotate(30 180 200)"/><path d="M180 150 V154" stroke="#24124f" transform="rotate(36 180 200)"/><path d="M180 150 V154" stroke="#24124f" transform="rotate(42 180 200)"/><path d="M180 150 V154" stroke="#24124f" transform="rotate(48 180 200)"/><path d="M180 150 V154" stroke="#24124f" transform="rotate(54 180 200)"/><path d="M180 150 V154" stroke="#24124f" transform="rotate(60 180 200)"/><path d="M180 150 V154" stroke="#24124f" transform="rotate(66 180 200)"/><path d="M180 150 V154" stroke="#24124f" transform="rotate(72 180 200)"/><path d="M180 150 V154" stroke="#24124f" transform="rotate(78 180 200)"/><path d="M180 150 V154" stroke="#24124f" transform="rotate(84 180 200)"/><path d="M180 150 V154" stroke="#24124f" transform="rotate(90 180 200)"/><path d="M180 150 V154" stroke="#24124f" transform="rotate(96 180 200)"/><path d="M180 150 V154" stroke="#24124f" transform="rotate(102 180 200)"/><path d="M180 150 V154" stroke="#24124f" transform="rotate(108 180 200)"/><path d="M180 150 V154" stroke="#24124f" transform="rotate(114 180 200)"/><path d="M180 150 V154" stroke="#24124f" transform="rotate(120 180 200)"/><path d="M180 150 V154" stroke="#24124f" transform="rotate(126 180 200)"/><path d="M180 150 V154" stroke="#24124f" transform="rotate(132 180 200)"/><path d="M180 150 V154" stroke="#24124f" transform="rotate(138 180 200)"/><path d="M180 150 V154" stroke="#24124f" transform="rotate(144 180 200)"/><path d="M180 150 V154" stroke="#24124f" transform="rotate(150 180 200)"/><path d="M180 150 V154" stroke="#24124f" transform="rotate(156 180 200)"/><path d="M180 150 V154" stroke="#24124f" transform="rotate(162 180 200)"/><path d="M180 150 V154" stroke="#24124f" transform="rotate(168 180 200)"/><path d="M180 150 V154" stroke="#24124f" transform="rotate(174 180 200)"/><path d="M180 150 V154" stroke="#24124f" transform="rotate(180 180 200)"/><path d="M180 150 V154" stroke="#24124f" transform="rotate(186 180 200)"/><path d="M180 150 V154" stroke="#24124f" transform="rotate(192 180 200)"/><path d="M180 150 V154" stroke="#24124f" transform="rotate(198 180 200)"/><path d="M180 150 V154" stroke="#24124f" transform="rotate(204 180 200)"/><path d="M180 150 V154" stroke="#24124f" transform="rotate(210 180 200)"/><path d="M180 150 V154" stroke="#24124f" transform="rotate(216 180 200)"/><path d="M180 150 V154" stroke="#24124f" transform="rotate(222 180 200)"/><path d="M180 150 V154" stroke="#24124f" transform="rotate(228 180 200)"/><path d="M180 150 V154" stroke="#24124f" transform="rotate(234 180 200)"/><path d="M180 150 V154" stroke="#24124f" transform="rotate(240 180 200)"/><path d="M180 150 V154" stroke="#24124f" transform="rotate(246 180 200)"/><path d="M180 150 V154" stroke="#24124f" transform="rotate(252 180 200)"/><path d="M180 150 V154" stroke="#24124f" transform="rotate(258 180 200)"/><path d="M180 150 V154" stroke="#24124f" transform="rotate(264 180 200)"/><path d="M180 150 V154" stroke="#24124f" transform="rotate(270 180 200)"/><path d="M180 150 V154" stroke="#24124f" transform="rotate(276 180 200)"/><path d="M180 150 V154" stroke="#24124f" transform="rotate(282 180 200)"/><path d="M180 150 V154" stroke="#24124f" transform="rotate(288 180 200)"/><path d="M180 150 V154" stroke="#24124f" transform="rotate(294 180 200)"/><path d="M180 150 V154" stroke="#24124f" transform="rotate(300 180 200)"/><path d="M180 150 V154" stroke="#24124f" transform="rotate(306 180 200)"/><path d="M180 150 V154" stroke="#24124f" transform="rotate(312 180 200)"/><path d="M180 150 V154" stroke="#24124f" transform="rotate(318 180 200)"/><path d="M180 150 V154" stroke="#24124f" transform="rotate(324 180 200)"/><path d="M180 150 V154" stroke="#24124f" transform="rotate(330 180 200)"/><path d="M180 150 V154" stroke="#24124f" transform="rotate(336 180 200)"/><path d="M180 150 V154" stroke="#24124f" transform="rotate(342 180 200)"/><path d="M180 150 V154" stroke="#24124f" transform="rotate(348 180 200)"/><path d="M180 150 V154" stroke="#24124f" transform="rotate(354 180 200)"/>
  <circle cx="180" cy="200" r="94" fill="url(#rg1h)"><animate attributeName="opacity" values=".5;1;.5" dur="4s" repeatCount="indefinite"/></circle>
  <circle cx="180" cy="200" r="64" stroke="url(#rg1)" stroke-width="10" stroke-linecap="round" transform="rotate(-90 180 200)" filter="url(#rg1f)" opacity=".7"
    stroke-dasharray="402.1" stroke-dashoffset="0.0">
    <animate attributeName="stroke-dashoffset" values="402.1;0.0" dur="1.8s" fill="freeze"/>
  </circle>
  <circle cx="180" cy="200" r="64" stroke="url(#rg1)" stroke-width="6" stroke-linecap="round" transform="rotate(-90 180 200)"
    stroke-dasharray="402.1" stroke-dashoffset="0.0">
    <animate attributeName="stroke-dashoffset" values="402.1;0.0" dur="1.8s" fill="freeze"/>
  </circle>
  <g>
    <animateTransform attributeName="transform" type="rotate" from="0 180 200" to="360 180 200" dur="9s" repeatCount="indefinite"/>
    <circle cx="180" cy="114" r="4" fill="#c084fc"/>
    <circle cx="180" cy="114" r="9" fill="#c084fc" opacity=".2"/>
  </g>
  <text x="180" y="210" text-anchor="middle" font-family="'Segoe UI', Ubuntu, 'Helvetica Neue', Arial, sans-serif" font-size="34" font-weight="600" fill="#f5f3ff">734</text>
  <text x="180" y="230" text-anchor="middle" font-family="'JetBrains Mono', Consolas, 'DejaVu Sans Mono', Menlo, monospace" font-size="8" fill="#c084fc" letter-spacing="1.2">CONTRIBUTIONS</text>
  <text x="180" y="318" text-anchor="middle" font-family="'JetBrains Mono', Consolas, 'DejaVu Sans Mono', Menlo, monospace" font-size="10" fill="#8b7bb8" letter-spacing="2.5">LAST YEAR</text>
  
  <defs>
    <linearGradient id="rg2" x1="0" y1="0" x2="1" y2="1"><stop offset="0" stop-color="#e9d5ff"/><stop offset="1" stop-color="#7c3aed"/></linearGradient>
    <radialGradient id="rg2h"><stop offset=".55" stop-color="#7c3aed" stop-opacity=".25"/><stop offset="1" stop-color="#7c3aed" stop-opacity="0"/></radialGradient>
    <filter id="rg2f" x="-30%" y="-30%" width="160%" height="160%"><feGaussianBlur stdDeviation="5"/></filter>
  </defs>
  <circle cx="1020" cy="200" r="86" stroke="#24124f" stroke-opacity=".6"/>
  <circle cx="1020" cy="200" r="64" fill="#06021a" stroke="#24124f" stroke-width="6"/>
  <path d="M1020 150 V154" stroke="#24124f" transform="rotate(0 1020 200)"/><path d="M1020 150 V154" stroke="#24124f" transform="rotate(6 1020 200)"/><path d="M1020 150 V154" stroke="#24124f" transform="rotate(12 1020 200)"/><path d="M1020 150 V154" stroke="#24124f" transform="rotate(18 1020 200)"/><path d="M1020 150 V154" stroke="#24124f" transform="rotate(24 1020 200)"/><path d="M1020 150 V154" stroke="#24124f" transform="rotate(30 1020 200)"/><path d="M1020 150 V154" stroke="#24124f" transform="rotate(36 1020 200)"/><path d="M1020 150 V154" stroke="#24124f" transform="rotate(42 1020 200)"/><path d="M1020 150 V154" stroke="#24124f" transform="rotate(48 1020 200)"/><path d="M1020 150 V154" stroke="#24124f" transform="rotate(54 1020 200)"/><path d="M1020 150 V154" stroke="#24124f" transform="rotate(60 1020 200)"/><path d="M1020 150 V154" stroke="#24124f" transform="rotate(66 1020 200)"/><path d="M1020 150 V154" stroke="#24124f" transform="rotate(72 1020 200)"/><path d="M1020 150 V154" stroke="#24124f" transform="rotate(78 1020 200)"/><path d="M1020 150 V154" stroke="#24124f" transform="rotate(84 1020 200)"/><path d="M1020 150 V154" stroke="#24124f" transform="rotate(90 1020 200)"/><path d="M1020 150 V154" stroke="#24124f" transform="rotate(96 1020 200)"/><path d="M1020 150 V154" stroke="#24124f" transform="rotate(102 1020 200)"/><path d="M1020 150 V154" stroke="#24124f" transform="rotate(108 1020 200)"/><path d="M1020 150 V154" stroke="#24124f" transform="rotate(114 1020 200)"/><path d="M1020 150 V154" stroke="#24124f" transform="rotate(120 1020 200)"/><path d="M1020 150 V154" stroke="#24124f" transform="rotate(126 1020 200)"/><path d="M1020 150 V154" stroke="#24124f" transform="rotate(132 1020 200)"/><path d="M1020 150 V154" stroke="#24124f" transform="rotate(138 1020 200)"/><path d="M1020 150 V154" stroke="#24124f" transform="rotate(144 1020 200)"/><path d="M1020 150 V154" stroke="#24124f" transform="rotate(150 1020 200)"/><path d="M1020 150 V154" stroke="#24124f" transform="rotate(156 1020 200)"/><path d="M1020 150 V154" stroke="#24124f" transform="rotate(162 1020 200)"/><path d="M1020 150 V154" stroke="#24124f" transform="rotate(168 1020 200)"/><path d="M1020 150 V154" stroke="#24124f" transform="rotate(174 1020 200)"/><path d="M1020 150 V154" stroke="#24124f" transform="rotate(180 1020 200)"/><path d="M1020 150 V154" stroke="#24124f" transform="rotate(186 1020 200)"/><path d="M1020 150 V154" stroke="#24124f" transform="rotate(192 1020 200)"/><path d="M1020 150 V154" stroke="#24124f" transform="rotate(198 1020 200)"/><path d="M1020 150 V154" stroke="#24124f" transform="rotate(204 1020 200)"/><path d="M1020 150 V154" stroke="#24124f" transform="rotate(210 1020 200)"/><path d="M1020 150 V154" stroke="#24124f" transform="rotate(216 1020 200)"/><path d="M1020 150 V154" stroke="#24124f" transform="rotate(222 1020 200)"/><path d="M1020 150 V154" stroke="#24124f" transform="rotate(228 1020 200)"/><path d="M1020 150 V154" stroke="#24124f" transform="rotate(234 1020 200)"/><path d="M1020 150 V154" stroke="#24124f" transform="rotate(240 1020 200)"/><path d="M1020 150 V154" stroke="#24124f" transform="rotate(246 1020 200)"/><path d="M1020 150 V154" stroke="#24124f" transform="rotate(252 1020 200)"/><path d="M1020 150 V154" stroke="#24124f" transform="rotate(258 1020 200)"/><path d="M1020 150 V154" stroke="#24124f" transform="rotate(264 1020 200)"/><path d="M1020 150 V154" stroke="#24124f" transform="rotate(270 1020 200)"/><path d="M1020 150 V154" stroke="#24124f" transform="rotate(276 1020 200)"/><path d="M1020 150 V154" stroke="#24124f" transform="rotate(282 1020 200)"/><path d="M1020 150 V154" stroke="#24124f" transform="rotate(288 1020 200)"/><path d="M1020 150 V154" stroke="#24124f" transform="rotate(294 1020 200)"/><path d="M1020 150 V154" stroke="#24124f" transform="rotate(300 1020 200)"/><path d="M1020 150 V154" stroke="#24124f" transform="rotate(306 1020 200)"/><path d="M1020 150 V154" stroke="#24124f" transform="rotate(312 1020 200)"/><path d="M1020 150 V154" stroke="#24124f" transform="rotate(318 1020 200)"/><path d="M1020 150 V154" stroke="#24124f" transform="rotate(324 1020 200)"/><path d="M1020 150 V154" stroke="#24124f" transform="rotate(330 1020 200)"/><path d="M1020 150 V154" stroke="#24124f" transform="rotate(336 1020 200)"/><path d="M1020 150 V154" stroke="#24124f" transform="rotate(342 1020 200)"/><path d="M1020 150 V154" stroke="#24124f" transform="rotate(348 1020 200)"/><path d="M1020 150 V154" stroke="#24124f" transform="rotate(354 1020 200)"/>
  <circle cx="1020" cy="200" r="94" fill="url(#rg2h)"><animate attributeName="opacity" values=".5;1;.5" dur="4s" repeatCount="indefinite"/></circle>
  <circle cx="1020" cy="200" r="64" stroke="url(#rg2)" stroke-width="10" stroke-linecap="round" transform="rotate(-90 1020 200)" filter="url(#rg2f)" opacity=".7"
    stroke-dasharray="402.1" stroke-dashoffset="220.3">
    <animate attributeName="stroke-dashoffset" values="402.1;220.3" dur="1.8s" fill="freeze"/>
  </circle>
  <circle cx="1020" cy="200" r="64" stroke="url(#rg2)" stroke-width="6" stroke-linecap="round" transform="rotate(-90 1020 200)"
    stroke-dasharray="402.1" stroke-dashoffset="220.3">
    <animate attributeName="stroke-dashoffset" values="402.1;220.3" dur="1.8s" fill="freeze"/>
  </circle>
  <g>
    <animateTransform attributeName="transform" type="rotate" from="0 1020 200" to="360 1020 200" dur="9s" repeatCount="indefinite"/>
    <circle cx="1020" cy="114" r="4" fill="#c084fc"/>
    <circle cx="1020" cy="114" r="9" fill="#c084fc" opacity=".2"/>
  </g>
  <text x="1020" y="210" text-anchor="middle" font-family="'Segoe UI', Ubuntu, 'Helvetica Neue', Arial, sans-serif" font-size="34" font-weight="600" fill="#f5f3ff">165</text>
  <text x="1020" y="230" text-anchor="middle" font-family="'JetBrains Mono', Consolas, 'DejaVu Sans Mono', Menlo, monospace" font-size="8" fill="#c084fc" letter-spacing="1.2">ACTIVE DAYS</text>
  <text x="1020" y="318" text-anchor="middle" font-family="'JetBrains Mono', Consolas, 'DejaVu Sans Mono', Menlo, monospace" font-size="10" fill="#8b7bb8" letter-spacing="2.5">LAST YEAR</text>

  <rect x="330" y="96" width="540" height="220" rx="16" fill="#06021a" fill-opacity=".55" stroke="#24124f"/>
  <text x="360" y="130" text-anchor="start" font-family="'JetBrains Mono', Consolas, 'DejaVu Sans Mono', Menlo, monospace" font-size="10" fill="#c084fc" letter-spacing="2.5">ACTIVITY / 28 DAYS</text>
  <g filter="url(#bglow)" opacity=".6"><rect x="360.0" y="152" width="12" height="120" rx="3" fill="#24124f" opacity=".45"/><rect x="377.3" y="152" width="12" height="120" rx="3" fill="#24124f" opacity=".45"/>
    <rect x="377.3" y="162.9" width="12" height="109.1" rx="3" fill="url(#bar)">
      <animate attributeName="height" values="0;109.1" dur="1.2s" fill="freeze"/>
      <animate attributeName="y" values="272;162.9" dur="1.2s" fill="freeze"/>
      <animate attributeName="opacity" values="1;.65;1" dur="2.4s" begin="0.08s" repeatCount="indefinite"/>
    </rect><rect x="394.7" y="152" width="12" height="120" rx="3" fill="#24124f" opacity=".45"/>
    <rect x="394.7" y="206.5" width="12" height="65.5" rx="3" fill="url(#bar)">
      <animate attributeName="height" values="0;65.5" dur="1.2s" fill="freeze"/>
      <animate attributeName="y" values="272;206.5" dur="1.2s" fill="freeze"/>
      <animate attributeName="opacity" values="1;.65;1" dur="2.4s" begin="0.16s" repeatCount="indefinite"/>
    </rect><rect x="412.0" y="152" width="12" height="120" rx="3" fill="#24124f" opacity=".45"/>
    <rect x="412.0" y="152.0" width="12" height="120.0" rx="3" fill="url(#bar)">
      <animate attributeName="height" values="0;120.0" dur="1.2s" fill="freeze"/>
      <animate attributeName="y" values="272;152.0" dur="1.2s" fill="freeze"/>
      <animate attributeName="opacity" values="1;.65;1" dur="2.4s" begin="0.24s" repeatCount="indefinite"/>
    </rect><rect x="429.3" y="152" width="12" height="120" rx="3" fill="#24124f" opacity=".45"/><rect x="446.7" y="152" width="12" height="120" rx="3" fill="#24124f" opacity=".45"/><rect x="464.0" y="152" width="12" height="120" rx="3" fill="#24124f" opacity=".45"/><rect x="481.3" y="152" width="12" height="120" rx="3" fill="#24124f" opacity=".45"/>
    <rect x="481.3" y="195.6" width="12" height="76.4" rx="3" fill="url(#bar)">
      <animate attributeName="height" values="0;76.4" dur="1.2s" fill="freeze"/>
      <animate attributeName="y" values="272;195.6" dur="1.2s" fill="freeze"/>
      <animate attributeName="opacity" values="1;.65;1" dur="2.4s" begin="0.56s" repeatCount="indefinite"/>
    </rect><rect x="498.7" y="152" width="12" height="120" rx="3" fill="#24124f" opacity=".45"/><rect x="516.0" y="152" width="12" height="120" rx="3" fill="#24124f" opacity=".45"/>
    <rect x="516.0" y="217.5" width="12" height="54.5" rx="3" fill="url(#bar)">
      <animate attributeName="height" values="0;54.5" dur="1.2s" fill="freeze"/>
      <animate attributeName="y" values="272;217.5" dur="1.2s" fill="freeze"/>
      <animate attributeName="opacity" values="1;.65;1" dur="2.4s" begin="0.72s" repeatCount="indefinite"/>
    </rect><rect x="533.3" y="152" width="12" height="120" rx="3" fill="#24124f" opacity=".45"/>
    <rect x="533.3" y="184.7" width="12" height="87.3" rx="3" fill="url(#bar)">
      <animate attributeName="height" values="0;87.3" dur="1.2s" fill="freeze"/>
      <animate attributeName="y" values="272;184.7" dur="1.2s" fill="freeze"/>
      <animate attributeName="opacity" values="1;.65;1" dur="2.4s" begin="0.80s" repeatCount="indefinite"/>
    </rect><rect x="550.7" y="152" width="12" height="120" rx="3" fill="#24124f" opacity=".45"/><rect x="568.0" y="152" width="12" height="120" rx="3" fill="#24124f" opacity=".45"/>
    <rect x="568.0" y="250.2" width="12" height="21.8" rx="3" fill="url(#bar)">
      <animate attributeName="height" values="0;21.8" dur="1.2s" fill="freeze"/>
      <animate attributeName="y" values="272;250.2" dur="1.2s" fill="freeze"/>
      <animate attributeName="opacity" values="1;.65;1" dur="2.4s" begin="0.96s" repeatCount="indefinite"/>
    </rect><rect x="585.3" y="152" width="12" height="120" rx="3" fill="#24124f" opacity=".45"/><rect x="602.7" y="152" width="12" height="120" rx="3" fill="#24124f" opacity=".45"/><rect x="620.0" y="152" width="12" height="120" rx="3" fill="#24124f" opacity=".45"/>
    <rect x="620.0" y="152.0" width="12" height="120.0" rx="3" fill="url(#bar)">
      <animate attributeName="height" values="0;120.0" dur="1.2s" fill="freeze"/>
      <animate attributeName="y" values="272;152.0" dur="1.2s" fill="freeze"/>
      <animate attributeName="opacity" values="1;.65;1" dur="2.4s" begin="1.20s" repeatCount="indefinite"/>
    </rect><rect x="637.3" y="152" width="12" height="120" rx="3" fill="#24124f" opacity=".45"/><rect x="654.7" y="152" width="12" height="120" rx="3" fill="#24124f" opacity=".45"/>
    <rect x="654.7" y="173.8" width="12" height="98.2" rx="3" fill="url(#bar)">
      <animate attributeName="height" values="0;98.2" dur="1.2s" fill="freeze"/>
      <animate attributeName="y" values="272;173.8" dur="1.2s" fill="freeze"/>
      <animate attributeName="opacity" values="1;.65;1" dur="2.4s" begin="1.36s" repeatCount="indefinite"/>
    </rect><rect x="672.0" y="152" width="12" height="120" rx="3" fill="#24124f" opacity=".45"/><rect x="689.3" y="152" width="12" height="120" rx="3" fill="#24124f" opacity=".45"/>
    <rect x="689.3" y="239.3" width="12" height="32.7" rx="3" fill="url(#bar)">
      <animate attributeName="height" values="0;32.7" dur="1.2s" fill="freeze"/>
      <animate attributeName="y" values="272;239.3" dur="1.2s" fill="freeze"/>
      <animate attributeName="opacity" values="1;.65;1" dur="2.4s" begin="1.52s" repeatCount="indefinite"/>
    </rect><rect x="706.7" y="152" width="12" height="120" rx="3" fill="#24124f" opacity=".45"/><rect x="724.0" y="152" width="12" height="120" rx="3" fill="#24124f" opacity=".45"/>
    <rect x="724.0" y="228.4" width="12" height="43.6" rx="3" fill="url(#bar)">
      <animate attributeName="height" values="0;43.6" dur="1.2s" fill="freeze"/>
      <animate attributeName="y" values="272;228.4" dur="1.2s" fill="freeze"/>
      <animate attributeName="opacity" values="1;.65;1" dur="2.4s" begin="1.68s" repeatCount="indefinite"/>
    </rect><rect x="741.3" y="152" width="12" height="120" rx="3" fill="#24124f" opacity=".45"/><rect x="758.7" y="152" width="12" height="120" rx="3" fill="#24124f" opacity=".45"/><rect x="776.0" y="152" width="12" height="120" rx="3" fill="#24124f" opacity=".45"/><rect x="793.3" y="152" width="12" height="120" rx="3" fill="#24124f" opacity=".45"/>
    <rect x="793.3" y="261.1" width="12" height="10.9" rx="3" fill="url(#bar)">
      <animate attributeName="height" values="0;10.9" dur="1.2s" fill="freeze"/>
      <animate attributeName="y" values="272;261.1" dur="1.2s" fill="freeze"/>
      <animate attributeName="opacity" values="1;.65;1" dur="2.4s" begin="2.00s" repeatCount="indefinite"/>
    </rect><rect x="810.7" y="152" width="12" height="120" rx="3" fill="#24124f" opacity=".45"/><rect x="828.0" y="152" width="12" height="120" rx="3" fill="#24124f" opacity=".45"/>
    <rect x="828.0" y="162.9" width="12" height="109.1" rx="3" fill="url(#bar)">
      <animate attributeName="height" values="0;109.1" dur="1.2s" fill="freeze"/>
      <animate attributeName="y" values="272;162.9" dur="1.2s" fill="freeze"/>
      <animate attributeName="opacity" values="1;.65;1" dur="2.4s" begin="2.16s" repeatCount="indefinite"/>
    </rect></g>
  <rect x="360.0" y="152" width="12" height="120" rx="3" fill="#24124f" opacity=".45"/><rect x="377.3" y="152" width="12" height="120" rx="3" fill="#24124f" opacity=".45"/>
    <rect x="377.3" y="162.9" width="12" height="109.1" rx="3" fill="url(#bar)">
      <animate attributeName="height" values="0;109.1" dur="1.2s" fill="freeze"/>
      <animate attributeName="y" values="272;162.9" dur="1.2s" fill="freeze"/>
      <animate attributeName="opacity" values="1;.65;1" dur="2.4s" begin="0.08s" repeatCount="indefinite"/>
    </rect><rect x="394.7" y="152" width="12" height="120" rx="3" fill="#24124f" opacity=".45"/>
    <rect x="394.7" y="206.5" width="12" height="65.5" rx="3" fill="url(#bar)">
      <animate attributeName="height" values="0;65.5" dur="1.2s" fill="freeze"/>
      <animate attributeName="y" values="272;206.5" dur="1.2s" fill="freeze"/>
      <animate attributeName="opacity" values="1;.65;1" dur="2.4s" begin="0.16s" repeatCount="indefinite"/>
    </rect><rect x="412.0" y="152" width="12" height="120" rx="3" fill="#24124f" opacity=".45"/>
    <rect x="412.0" y="152.0" width="12" height="120.0" rx="3" fill="url(#bar)">
      <animate attributeName="height" values="0;120.0" dur="1.2s" fill="freeze"/>
      <animate attributeName="y" values="272;152.0" dur="1.2s" fill="freeze"/>
      <animate attributeName="opacity" values="1;.65;1" dur="2.4s" begin="0.24s" repeatCount="indefinite"/>
    </rect><rect x="429.3" y="152" width="12" height="120" rx="3" fill="#24124f" opacity=".45"/><rect x="446.7" y="152" width="12" height="120" rx="3" fill="#24124f" opacity=".45"/><rect x="464.0" y="152" width="12" height="120" rx="3" fill="#24124f" opacity=".45"/><rect x="481.3" y="152" width="12" height="120" rx="3" fill="#24124f" opacity=".45"/>
    <rect x="481.3" y="195.6" width="12" height="76.4" rx="3" fill="url(#bar)">
      <animate attributeName="height" values="0;76.4" dur="1.2s" fill="freeze"/>
      <animate attributeName="y" values="272;195.6" dur="1.2s" fill="freeze"/>
      <animate attributeName="opacity" values="1;.65;1" dur="2.4s" begin="0.56s" repeatCount="indefinite"/>
    </rect><rect x="498.7" y="152" width="12" height="120" rx="3" fill="#24124f" opacity=".45"/><rect x="516.0" y="152" width="12" height="120" rx="3" fill="#24124f" opacity=".45"/>
    <rect x="516.0" y="217.5" width="12" height="54.5" rx="3" fill="url(#bar)">
      <animate attributeName="height" values="0;54.5" dur="1.2s" fill="freeze"/>
      <animate attributeName="y" values="272;217.5" dur="1.2s" fill="freeze"/>
      <animate attributeName="opacity" values="1;.65;1" dur="2.4s" begin="0.72s" repeatCount="indefinite"/>
    </rect><rect x="533.3" y="152" width="12" height="120" rx="3" fill="#24124f" opacity=".45"/>
    <rect x="533.3" y="184.7" width="12" height="87.3" rx="3" fill="url(#bar)">
      <animate attributeName="height" values="0;87.3" dur="1.2s" fill="freeze"/>
      <animate attributeName="y" values="272;184.7" dur="1.2s" fill="freeze"/>
      <animate attributeName="opacity" values="1;.65;1" dur="2.4s" begin="0.80s" repeatCount="indefinite"/>
    </rect><rect x="550.7" y="152" width="12" height="120" rx="3" fill="#24124f" opacity=".45"/><rect x="568.0" y="152" width="12" height="120" rx="3" fill="#24124f" opacity=".45"/>
    <rect x="568.0" y="250.2" width="12" height="21.8" rx="3" fill="url(#bar)">
      <animate attributeName="height" values="0;21.8" dur="1.2s" fill="freeze"/>
      <animate attributeName="y" values="272;250.2" dur="1.2s" fill="freeze"/>
      <animate attributeName="opacity" values="1;.65;1" dur="2.4s" begin="0.96s" repeatCount="indefinite"/>
    </rect><rect x="585.3" y="152" width="12" height="120" rx="3" fill="#24124f" opacity=".45"/><rect x="602.7" y="152" width="12" height="120" rx="3" fill="#24124f" opacity=".45"/><rect x="620.0" y="152" width="12" height="120" rx="3" fill="#24124f" opacity=".45"/>
    <rect x="620.0" y="152.0" width="12" height="120.0" rx="3" fill="url(#bar)">
      <animate attributeName="height" values="0;120.0" dur="1.2s" fill="freeze"/>
      <animate attributeName="y" values="272;152.0" dur="1.2s" fill="freeze"/>
      <animate attributeName="opacity" values="1;.65;1" dur="2.4s" begin="1.20s" repeatCount="indefinite"/>
    </rect><rect x="637.3" y="152" width="12" height="120" rx="3" fill="#24124f" opacity=".45"/><rect x="654.7" y="152" width="12" height="120" rx="3" fill="#24124f" opacity=".45"/>
    <rect x="654.7" y="173.8" width="12" height="98.2" rx="3" fill="url(#bar)">
      <animate attributeName="height" values="0;98.2" dur="1.2s" fill="freeze"/>
      <animate attributeName="y" values="272;173.8" dur="1.2s" fill="freeze"/>
      <animate attributeName="opacity" values="1;.65;1" dur="2.4s" begin="1.36s" repeatCount="indefinite"/>
    </rect><rect x="672.0" y="152" width="12" height="120" rx="3" fill="#24124f" opacity=".45"/><rect x="689.3" y="152" width="12" height="120" rx="3" fill="#24124f" opacity=".45"/>
    <rect x="689.3" y="239.3" width="12" height="32.7" rx="3" fill="url(#bar)">
      <animate attributeName="height" values="0;32.7" dur="1.2s" fill="freeze"/>
      <animate attributeName="y" values="272;239.3" dur="1.2s" fill="freeze"/>
      <animate attributeName="opacity" values="1;.65;1" dur="2.4s" begin="1.52s" repeatCount="indefinite"/>
    </rect><rect x="706.7" y="152" width="12" height="120" rx="3" fill="#24124f" opacity=".45"/><rect x="724.0" y="152" width="12" height="120" rx="3" fill="#24124f" opacity=".45"/>
    <rect x="724.0" y="228.4" width="12" height="43.6" rx="3" fill="url(#bar)">
      <animate attributeName="height" values="0;43.6" dur="1.2s" fill="freeze"/>
      <animate attributeName="y" values="272;228.4" dur="1.2s" fill="freeze"/>
      <animate attributeName="opacity" values="1;.65;1" dur="2.4s" begin="1.68s" repeatCount="indefinite"/>
    </rect><rect x="741.3" y="152" width="12" height="120" rx="3" fill="#24124f" opacity=".45"/><rect x="758.7" y="152" width="12" height="120" rx="3" fill="#24124f" opacity=".45"/><rect x="776.0" y="152" width="12" height="120" rx="3" fill="#24124f" opacity=".45"/><rect x="793.3" y="152" width="12" height="120" rx="3" fill="#24124f" opacity=".45"/>
    <rect x="793.3" y="261.1" width="12" height="10.9" rx="3" fill="url(#bar)">
      <animate attributeName="height" values="0;10.9" dur="1.2s" fill="freeze"/>
      <animate attributeName="y" values="272;261.1" dur="1.2s" fill="freeze"/>
      <animate attributeName="opacity" values="1;.65;1" dur="2.4s" begin="2.00s" repeatCount="indefinite"/>
    </rect><rect x="810.7" y="152" width="12" height="120" rx="3" fill="#24124f" opacity=".45"/><rect x="828.0" y="152" width="12" height="120" rx="3" fill="#24124f" opacity=".45"/>
    <rect x="828.0" y="162.9" width="12" height="109.1" rx="3" fill="url(#bar)">
      <animate attributeName="height" values="0;109.1" dur="1.2s" fill="freeze"/>
      <animate attributeName="y" values="272;162.9" dur="1.2s" fill="freeze"/>
      <animate attributeName="opacity" values="1;.65;1" dur="2.4s" begin="2.16s" repeatCount="indefinite"/>
    </rect>
  <rect x="354" y="146" width="2" height="132" fill="url(#scan)">
    <animate attributeName="x" values="354;844" dur="5s" repeatCount="indefinite"/>
  </rect>
  <text x="360" y="298" text-anchor="start" font-family="'JetBrains Mono', Consolas, 'DejaVu Sans Mono', Menlo, monospace" font-size="9" fill="#8b7bb8" letter-spacing="2.5">07 SEP</text>
  <text x="840" y="298" text-anchor="end" font-family="'JetBrains Mono', Consolas, 'DejaVu Sans Mono', Menlo, monospace" font-size="9" fill="#8b7bb8" letter-spacing="2.5">04 OCT</text>

  
    <rect x="40" y="356" width="265" height="84" rx="14" fill="#06021a" fill-opacity=".55" stroke="#24124f"/>
    <text x="58" y="392" font-family="'Segoe UI', Ubuntu, 'Helvetica Neue', Arial, sans-serif" font-size="24" font-weight="600" fill="#f5f3ff">4</text>
    <text x="58" y="414" text-anchor="start" font-family="'JetBrains Mono', Consolas, 'DejaVu Sans Mono', Menlo, monospace" font-size="9" fill="#c084fc" letter-spacing="2.5">PUBLIC REPOS</text>
    <text x="58" y="430" font-family="'Segoe UI', Ubuntu, 'Helvetica Neue', Arial, sans-serif" font-size="10" fill="#8b7bb8">owned by this account</text>
    <rect x="325" y="356" width="265" height="84" rx="14" fill="#06021a" fill-opacity=".55" stroke="#24124f"/>
    <text x="343" y="392" font-family="'Segoe UI', Ubuntu, 'Helvetica Neue', Arial, sans-serif" font-size="24" font-weight="600" fill="#f5f3ff">3</text>
    <text x="343" y="414" text-anchor="start" font-family="'JetBrains Mono', Consolas, 'DejaVu Sans Mono', Menlo, monospace" font-size="9" fill="#c084fc" letter-spacing="2.5">STARS</text>
    <text x="343" y="430" font-family="'Segoe UI', Ubuntu, 'Helvetica Neue', Arial, sans-serif" font-size="10" fill="#8b7bb8">across public repos</text>
    <rect x="610" y="356" width="265" height="84" rx="14" fill="#06021a" fill-opacity=".55" stroke="#24124f"/>
    <text x="628" y="392" font-family="'Segoe UI', Ubuntu, 'Helvetica Neue', Arial, sans-serif" font-size="24" font-weight="600" fill="#f5f3ff">512</text>
    <text x="628" y="414" text-anchor="start" font-family="'JetBrains Mono', Consolas, 'DejaVu Sans Mono', Menlo, monospace" font-size="9" fill="#c084fc" letter-spacing="2.5">COMMITS</text>
    <text x="628" y="430" font-family="'Segoe UI', Ubuntu, 'Helvetica Neue', Arial, sans-serif" font-size="10" fill="#8b7bb8">last year</text>
    <rect x="895" y="356" width="265" height="84" rx="14" fill="#06021a" fill-opacity=".55" stroke="#24124f"/>
    <text x="913" y="392" font-family="'Segoe UI', Ubuntu, 'Helvetica Neue', Arial, sans-serif" font-size="24" font-weight="600" fill="#f5f3ff">8</text>
    <text x="913" y="414" text-anchor="start" font-family="'JetBrains Mono', Consolas, 'DejaVu Sans Mono', Menlo, monospace" font-size="9" fill="#c084fc" letter-spacing="2.5">BEST STREAK</text>
    <text x="913" y="430" font-family="'Segoe UI', Ubuntu, 'Helvetica Neue', Arial, sans-serif" font-size="10" fill="#8b7bb8">days in a row</text>

  <text x="40" y="472" text-anchor="start" font-family="'JetBrains Mono', Consolas, 'DejaVu Sans Mono', Menlo, monospace" font-size="10" fill="#c084fc" letter-spacing="2.5">LANGUAGE MIX / PUBLIC CODE</text>
  <rect x="40" y="486" width="1120" height="6" rx="3" fill="#24124f"/>
  <g clip-path="url(#segs)"><rect x="40.0" y="486" width="556.0" height="6" fill="#a855f7"/><rect x="596.0" y="486" width="432.4" height="6" fill="#f472b6"/><rect x="1028.4" y="486" width="68.0" height="6" fill="#818cf8"/><rect x="1096.4" y="486" width="37.1" height="6" fill="#e9d5ff"/><rect x="1133.4" y="486" width="24.7" height="6" fill="#e879f9"/><rect x="1158.1" y="486" width="1.9" height="6" fill="#6d28d9"/></g>
  <circle cx="44" cy="514" r="4" fill="#a855f7"/>
    <text x="56" y="518" font-family="'Segoe UI', Ubuntu, 'Helvetica Neue', Arial, sans-serif" font-size="12" fill="#e9d5ff">JavaScript <tspan fill="#8b7bb8">49.6%</tspan></text><circle cx="424" cy="514" r="4" fill="#f472b6"/>
    <text x="436" y="518" font-family="'Segoe UI', Ubuntu, 'Helvetica Neue', Arial, sans-serif" font-size="12" fill="#e9d5ff">GDScript <tspan fill="#8b7bb8">38.6%</tspan></text><circle cx="804" cy="514" r="4" fill="#818cf8"/>
    <text x="816" y="518" font-family="'Segoe UI', Ubuntu, 'Helvetica Neue', Arial, sans-serif" font-size="12" fill="#e9d5ff">Python <tspan fill="#8b7bb8">6.1%</tspan></text><circle cx="44" cy="538" r="4" fill="#e9d5ff"/>
    <text x="56" y="542" font-family="'Segoe UI', Ubuntu, 'Helvetica Neue', Arial, sans-serif" font-size="12" fill="#e9d5ff">HTML <tspan fill="#8b7bb8">3.3%</tspan></text><circle cx="424" cy="538" r="4" fill="#e879f9"/>
    <text x="436" y="542" font-family="'Segoe UI', Ubuntu, 'Helvetica Neue', Arial, sans-serif" font-size="12" fill="#e9d5ff">CSS <tspan fill="#8b7bb8">2.2%</tspan></text><circle cx="804" cy="538" r="4" fill="#6d28d9"/>
    <text x="816" y="542" font-family="'Segoe UI', Ubuntu, 'Helvetica Neue', Arial, sans-serif" font-size="12" fill="#e9d5ff">Shell <tspan fill="#8b7bb8">0.2%</tspan></text>

  <text x="40" y="582" text-anchor="start" font-family="'JetBrains Mono', Consolas, 'DejaVu Sans Mono', Menlo, monospace" font-size="9" fill="#8b7bb8" letter-spacing="2.5">SYNC 04 OCT, 11:14 UTC</text>
  <text x="1160" y="582" text-anchor="end" font-family="'Segoe UI', Ubuntu, 'Helvetica Neue', Arial, sans-serif" font-size="10" fill="#8b7bb8">updates every 6h</text></svg>
